<svg width="30" height="30" viewBox="0 0 30 30" fill="none" xmlns="http://www.w3.org/2000/svg">
<g opacity="0.3">
<path d="M9.88636 2.49951C7.87044 2.49951 6.20482 3.99932 5.94447 5.94398C3.99981 6.20434 2.5 7.86996 2.5 9.88588C2.5 12.0825 4.28069 13.8631 6.47727 13.8631C7.21265 13.8631 7.90134 13.663 8.49175 13.3153L8.70675 13.5303C9.15043 13.974 9.86974 13.9741 10.3136 13.5306L13.5306 10.3156C13.7438 10.1025 13.8636 9.8134 13.8636 9.51196C13.8637 9.21051 13.744 8.9214 13.5308 8.70825L13.3149 8.49233C13.6629 7.9017 13.8636 7.21252 13.8636 6.47678C13.8636 4.2802 12.083 2.49951 9.88636 2.49951Z" fill="#1D2939"/>
<path d="M21.2918 16.4686C20.8482 16.0251 20.1291 16.025 19.6853 16.4683L16.4696 19.681C16.026 20.1242 16.0252 20.8429 16.4678 21.287L16.6853 21.5053C16.3368 22.0965 16.1364 22.7863 16.1364 23.5222C16.1364 25.7188 17.9171 27.4995 20.1136 27.4995C22.1296 27.4995 23.7952 25.9997 24.0555 24.055C26.0002 23.7947 27.5 22.1291 27.5 20.1131C27.5 17.9166 25.7193 16.1359 23.5227 16.1359C22.7874 16.1359 22.0981 16.336 21.5072 16.6839L21.2918 16.4686Z" fill="#1D2939"/>
<path d="M9.88636 2.49951C7.87044 2.49951 6.20482 3.99932 5.94447 5.94398C3.99981 6.20434 2.5 7.86996 2.5 9.88588C2.5 12.0825 4.28069 13.8631 6.47727 13.8631C7.21265 13.8631 7.90134 13.663 8.49175 13.3153L8.70675 13.5303C9.15043 13.974 9.86974 13.9741 10.3136 13.5306L13.5306 10.3156C13.7438 10.1025 13.8636 9.8134 13.8636 9.51196C13.8637 9.21051 13.744 8.9214 13.5308 8.70825L13.3149 8.49233C13.6629 7.9017 13.8636 7.21252 13.8636 6.47678C13.8636 4.2802 12.083 2.49951 9.88636 2.49951Z" stroke="#1D2939" stroke-width="2" stroke-linecap="round" stroke-linejoin="round"/>
<path d="M21.2918 16.4686C20.8482 16.0251 20.1291 16.025 19.6853 16.4683L16.4696 19.681C16.026 20.1242 16.0252 20.8429 16.4678 21.287L16.6853 21.5053C16.3368 22.0965 16.1364 22.7863 16.1364 23.5222C16.1364 25.7188 17.9171 27.4995 20.1136 27.4995C22.1296 27.4995 23.7952 25.9997 24.0555 24.055C26.0002 23.7947 27.5 22.1291 27.5 20.1131C27.5 17.9166 25.7193 16.1359 23.5227 16.1359C22.7874 16.1359 22.0981 16.336 21.5072 16.6839L21.2918 16.4686Z" stroke="#1D2939" stroke-width="2" stroke-linecap="round" stroke-linejoin="round"/>
</g>
<path d="M20.1136 2.49951C17.9171 2.49951 16.1364 4.2802 16.1364 6.47678C16.1364 7.21163 16.3359 7.90084 16.6835 8.49196L8.49175 16.6837C7.90135 16.336 7.21266 16.1359 6.47727 16.1359C4.28069 16.1359 2.5 17.9166 2.5 20.1131C2.5 22.1291 3.99981 23.7947 5.94447 24.055C6.20483 25.9997 7.87044 27.4995 9.88636 27.4995C12.083 27.4995 13.8636 25.7188 13.8636 23.5222C13.8636 22.7865 13.6629 22.0973 13.3149 21.5067L21.5065 13.3151C22.0978 13.6631 22.7875 13.8631 23.5227 13.8631C25.7193 13.8631 27.5 12.0825 27.5 9.88588C27.5 7.86996 26.0002 6.20434 24.0555 5.94398C23.7952 3.99932 22.1296 2.49951 20.1136 2.49951Z" fill="#1D2939"/>
</svg>
