<svg width="30" height="30" viewBox="0 0 30 30" fill="none" xmlns="http://www.w3.org/2000/svg">
<path opacity="0.3" fill-rule="evenodd" clip-rule="evenodd" d="M20.8688 3.78821C21.363 3.82859 21.8545 3.91773 22.3275 4.15873C23.0331 4.51825 23.6068 5.09193 23.9663 5.79754C24.2073 6.27051 24.2965 6.76203 24.3368 7.25622C24.3433 7.33566 24.3487 7.418 24.3532 7.50317C24.6256 7.50918 24.8749 7.52596 25.1066 7.57206C26.5942 7.86796 27.7571 9.03082 28.053 10.5184C28.1258 10.8845 28.1255 11.2943 28.1251 11.7702C28.1251 11.8048 28.125 11.8397 28.125 11.875C28.125 11.9103 28.1251 11.9452 28.1251 11.9798C28.1255 12.4557 28.1258 12.8655 28.053 13.2316C27.7571 14.7192 26.5942 15.882 25.1066 16.1779C24.8498 16.229 24.5714 16.2441 24.2638 16.2484C24.2381 16.4227 24.2066 16.5893 24.1678 16.7508C23.5094 19.4932 21.3683 21.6344 18.6259 22.2928C17.7605 22.5005 16.7506 22.5003 15.187 22.5C15.1256 22.5 15.0632 22.5 15 22.5C14.9369 22.5 14.8745 22.5 14.8131 22.5C13.2495 22.5003 12.2396 22.5005 11.3742 22.2928C8.63184 21.6344 6.49066 19.4932 5.83227 16.7508C5.62451 15.8854 5.62471 14.8756 5.62502 13.312C5.62504 13.2505 5.62505 13.1882 5.62505 13.125L5.62505 8.95183C5.62502 8.29289 5.625 7.72444 5.66326 7.25622C5.70364 6.76204 5.79278 6.27051 6.03377 5.79754C6.3933 5.09193 6.96698 4.51825 7.67258 4.15873C8.14556 3.91774 8.63708 3.82859 9.13126 3.78822C9.59948 3.74996 10.1679 3.74998 10.8269 3.75L19.1732 3.75C19.8322 3.74998 20.4006 3.74996 20.8688 3.78821ZM24.375 13.7452C24.512 13.7415 24.5719 13.7353 24.6189 13.726C25.1148 13.6274 25.5024 13.2397 25.601 12.7439C25.619 12.6536 25.625 12.5157 25.625 11.875C25.625 11.2343 25.619 11.0964 25.601 11.0061C25.5024 10.5103 25.1148 10.1227 24.6189 10.024C24.5719 10.0147 24.512 10.0085 24.375 10.0048V13.125C24.375 13.1882 24.3751 13.2505 24.3751 13.3119C24.3751 13.4613 24.3751 13.6056 24.375 13.7452Z" fill="#1D2939" stroke="#1D2939" stroke-width="2" stroke-linecap="round" stroke-linejoin="round"/>
<path d="M2.5 25C2.5 24.3096 3.05964 23.75 3.75 23.75H26.25C26.9404 23.75 27.5 24.3096 27.5 25C27.5 25.6904 26.9404 26.25 26.25 26.25H3.75C3.05964 26.25 2.5 25.6904 2.5 25Z" fill="#1D2939"/>
</svg>
